<svg id="Layer_1" data-name="Layer 1" xmlns="http://www.w3.org/2000/svg" viewBox="0 0 854.02 443.49"><defs><style>.cls-1,.cls-2,.cls-3,.cls-39,.cls-4,.cls-5{fill:none;}.cls-2{stroke:#eaeaea;}.cls-2,.cls-3,.cls-39,.cls-4,.cls-5,.cls-51{stroke-miterlimit:10;}.cls-2,.cls-3{opacity:0.5;}.cls-3,.cls-4{stroke:#ddd;}.cls-5{stroke:#888;}.cls-6,.cls-7,.cls-9{isolation:isolate;}.cls-6,.cls-9{font-size:14px;}.cls-27,.cls-6,.cls-7{font-family:Calibri;}.cls-7{font-size:16px;}.cls-8{letter-spacing:-0.07em;}.cls-9{font-family:ArialMT, Arial;}.cls-10{letter-spacing:0em;}.cls-11{letter-spacing:-0.02em;}.cls-12{letter-spacing:0em;}.cls-13{letter-spacing:-0.01em;}.cls-14{fill:#ef7fe8;}.cls-15{font-size:34.32px;font-family:Calibri-Bold, Calibri;font-weight:700;}.cls-16{letter-spacing:-0.02em;}.cls-17{letter-spacing:-0.01em;}.cls-18{letter-spacing:-0.01em;}.cls-19{letter-spacing:-0.01em;}.cls-20{letter-spacing:0em;}.cls-21{letter-spacing:0em;}.cls-22{letter-spacing:-0.02em;}.cls-23{letter-spacing:-0.01em;}.cls-24{letter-spacing:-0.02em;}.cls-25{letter-spacing:-0.01em;}.cls-26,.cls-51{fill:#fff;}.cls-27{font-size:13px;}.cls-28{letter-spacing:-0.02em;}.cls-29{letter-spacing:-0.01em;}.cls-30{letter-spacing:-0.02em;}.cls-31{letter-spacing:-0.03em;}.cls-32{letter-spacing:0em;}.cls-33{letter-spacing:-0.01em;}.cls-34{letter-spacing:-0.01em;}.cls-35{letter-spacing:-0.01em;}.cls-36{letter-spacing:-0.01em;}.cls-37{letter-spacing:-0.01em;}.cls-38{letter-spacing:0em;}.cls-39,.cls-51{stroke:#1d1d1b;stroke-width:1.5px;}.cls-40{fill:#1d1d1b;}.cls-41{letter-spacing:0em;}.cls-42{letter-spacing:-0.01em;}.cls-43{letter-spacing:-0.02em;}.cls-44{letter-spacing:-0.02em;}.cls-45{letter-spacing:-0.01em;}.cls-46{letter-spacing:-0.01em;}.cls-47{letter-spacing:-0.02em;}.cls-48{letter-spacing:-0.01em;}.cls-49{letter-spacing:0em;}.cls-50{letter-spacing:-0.01em;}</style></defs><path class="cls-1" d="M42.52,380.93Z"/><line class="cls-2" x1="59.52" y1="80.93" x2="59.52" y2="380.93"/><line class="cls-2" x1="119.52" y1="80.93" x2="119.52" y2="380.93"/><line class="cls-2" x1="179.52" y1="80.93" x2="179.52" y2="380.93"/><line class="cls-2" x1="239.52" y1="80.93" x2="239.52" y2="380.93"/><line class="cls-2" x1="298.52" y1="80.93" x2="298.52" y2="380.93"/><line class="cls-2" x1="358.52" y1="80.93" x2="358.52" y2="380.93"/><line class="cls-2" x1="418.52" y1="80.93" x2="418.52" y2="380.93"/><line class="cls-2" x1="478.52" y1="80.93" x2="478.52" y2="380.93"/><line class="cls-2" x1="538.52" y1="80.93" x2="538.52" y2="380.93"/><line class="cls-2" x1="598.52" y1="80.93" x2="598.52" y2="380.93"/><line class="cls-2" x1="657.52" y1="80.93" x2="657.52" y2="380.93"/><line class="cls-2" x1="717.52" y1="80.93" x2="717.52" y2="380.93"/><line class="cls-2" x1="777.52" y1="80.93" x2="777.52" y2="380.93"/><line class="cls-3" x1="837.52" y1="80.93" x2="837.52" y2="380.93"/><path class="cls-1" d="M42.52,80.93Z"/><line class="cls-4" x1="42.52" y1="380.93" x2="839.52" y2="380.93"/><line class="cls-2" x1="42.52" y1="337.93" x2="837.96" y2="337.93"/><line class="cls-2" x1="42.52" y1="294.93" x2="838.02" y2="294.93"/><line class="cls-2" x1="42.52" y1="251.93" x2="837.99" y2="251.93"/><line class="cls-2" x1="42.52" y1="209.93" x2="837.99" y2="209.93"/><line class="cls-2" x1="42.52" y1="166.93" x2="837.99" y2="166.93"/><line class="cls-2" x1="42.52" y1="123.93" x2="838.02" y2="123.93"/><line class="cls-2" x1="42.52" y1="80.93" x2="838.02" y2="80.93"/><path class="cls-1" d="M42.52,380.93Z"/><line class="cls-5" x1="119.52" y1="380.93" x2="119.52" y2="385.93"/><line class="cls-5" x1="239.52" y1="380.93" x2="239.52" y2="385.93"/><line class="cls-5" x1="358.52" y1="380.93" x2="358.52" y2="385.93"/><line class="cls-5" x1="478.52" y1="380.93" x2="478.52" y2="385.93"/><line class="cls-5" x1="598.52" y1="380.93" x2="598.52" y2="385.93"/><line class="cls-5" x1="717.52" y1="380.93" x2="717.52" y2="385.93"/><line class="cls-5" x1="839.06" y1="380.93" x2="839.06" y2="385.93"/><text class="cls-6" transform="translate(105.01 396.93)">1960</text><text class="cls-6" transform="translate(224.72 396.93)">1970</text><text class="cls-6" transform="translate(344.41 396.93)">1980</text><text class="cls-6" transform="translate(464.12 396.93)">1990</text><text class="cls-6" transform="translate(583.81 396.93)">2000</text><text class="cls-6" transform="translate(703.52 396.93)">2010</text><text class="cls-6" transform="translate(811.02 395.93)">2020</text><line class="cls-5" x1="42.52" y1="380.93" x2="839.52" y2="380.93"/><text class="cls-7" transform="translate(413.08 420.37)"><tspan class="cls-8">Y</tspan><tspan x="6.65" y="0">ear</tspan></text><path class="cls-1" d="M42.52,80.93Z"/><line class="cls-5" x1="42.52" y1="380.93" x2="37.52" y2="380.93"/><line class="cls-5" x1="42.52" y1="337.93" x2="37.52" y2="337.93"/><line class="cls-5" x1="42.52" y1="294.93" x2="37.52" y2="294.93"/><line class="cls-5" x1="42.52" y1="251.93" x2="37.52" y2="251.93"/><line class="cls-5" x1="42.52" y1="209.93" x2="37.52" y2="209.93"/><line class="cls-5" x1="42.52" y1="166.93" x2="37.52" y2="166.93"/><line class="cls-5" x1="42.52" y1="123.93" x2="37.52" y2="123.93"/><line class="cls-5" x1="42.52" y1="80.93" x2="37.52" y2="80.93"/><text class="cls-9" transform="translate(25.17 381.93)">0</text><text class="cls-9" transform="translate(25.17 341.07)">5</text><text class="cls-9" transform="translate(17.39 298.21)">10</text><text class="cls-9" transform="translate(17.39 255.35)">15</text><text class="cls-9" transform="translate(17.39 212.5)">20</text><text class="cls-9" transform="translate(17.39 169.64)">25</text><text class="cls-9" transform="translate(17.39 126.78)">30</text><text class="cls-9" transform="translate(17.39 90.93)">35</text><line class="cls-5" x1="42.52" y1="380.93" x2="42.52" y2="80.93"/><text class="cls-7" transform="translate(17.48 67.88)">N<tspan class="cls-10" x="10.33" y="0">e</tspan><tspan x="18.21" y="0">w </tspan><tspan class="cls-11" x="33.27" y="0">g</tspan><tspan x="40.5" y="0">as p</tspan><tspan class="cls-12" x="66.45" y="0">o</tspan><tspan class="cls-13" x="74.82" y="0">w</tspan><tspan x="86.12" y="0">er units opened</tspan></text><path class="cls-14" d="M834.52,363.28h5v17.15h-5Z"/><path class="cls-14" d="M822.56,346.14h5v34.29h-5Z"/><path class="cls-14" d="M810.6,337.57h5v42.86h-5Z"/><path class="cls-14" d="M786.64,346.14h5v34.29h-5Z"/><path class="cls-14" d="M774.68,354.71h5v25.72h-5Z"/><path class="cls-14" d="M738.76,260.43h5v120h-5Z"/><path class="cls-14" d="M726.8,337.57h5v42.86h-5Z"/><path class="cls-14" d="M714.84,320.43h5v60h-5Z"/><path class="cls-14" d="M702.88,303.28h5v77.15h-5Z"/><path class="cls-14" d="M690.88,329h5v51.43h-5Z"/><path class="cls-14" d="M678.92,286.14h5v94.29h-5Z"/><path class="cls-14" d="M667,329h5v51.43h-5Z"/><path class="cls-14" d="M655,191.85h5V380.43h-5Z"/><path class="cls-14" d="M643,354.71h5v25.72h-5Z"/><path class="cls-14" d="M631,209h5V380.43h-5Z"/><path class="cls-14" d="M619.08,209h5V380.43h-5Z"/><path class="cls-14" d="M607.12,97.57h5V380.43h-5Z"/><path class="cls-14" d="M559.24,354.71h5v25.72h-5Z"/><path class="cls-14" d="M547.24,363.28h5v17.15h-5Z"/><path class="cls-14" d="M535.28,354.71h5v25.72h-5Z"/><path class="cls-14" d="M523.32,354.71h5v25.72h-5Z"/><path class="cls-14" d="M511.36,363.28h5v17.15h-5Z"/><path class="cls-14" d="M499.36,346.14h5v34.29h-5Z"/><path class="cls-14" d="M487.4,354.71h5v25.72h-5Z"/><path class="cls-14" d="M463.48,371.85h5v8.58h-5Z"/><path class="cls-14" d="M439.52,371.85h5v8.58h-5Z"/><path class="cls-14" d="M272,371.85h5v8.58h-5Z"/><path class="cls-14" d="M248,371.85h5v8.58h-5Z"/><path class="cls-14" d="M212.08,371.85h5v8.58h-5Z"/><path class="cls-14" d="M200.12,371.85h5v8.58h-5Z"/><path class="cls-14" d="M176.2,371.85h5v8.58h-5Z"/><path class="cls-14" d="M164.2,363.28h5v17.15h-5Z"/><path class="cls-14" d="M152.24,371.85h5v8.58h-5Z"/><path class="cls-14" d="M140.28,363.28h5v17.15h-5Z"/><path class="cls-14" d="M128.32,371.85h5v8.58h-5Z"/><path class="cls-14" d="M104.36,363.28h5v17.15h-5Z"/><path class="cls-14" d="M92.4,354.71h5v25.72h-5Z"/><path class="cls-14" d="M80.44,371.85h5v8.58h-5Z"/><path class="cls-14" d="M44.52,371.85h5v8.58h-5Z"/><text class="cls-15" transform="translate(17.79 39.94)">Cali<tspan class="cls-16" x="51.96" y="0">f</tspan><tspan x="62.3" y="0">ornia s</tspan><tspan class="cls-17" x="158.18" y="0">a</tspan><tspan x="174.85" y="0">w a su</tspan><tspan class="cls-18" x="264.98" y="0">r</tspan><tspan class="cls-19" x="276.78" y="0">g</tspan><tspan class="cls-20" x="292.68" y="0">e of n</tspan><tspan class="cls-21" x="373.2" y="0">e</tspan><tspan x="390.3" y="0">w </tspan><tspan class="cls-22" x="423.63" y="0">g</tspan><tspan x="439.32" y="0">as </tspan><tspan class="cls-23" x="477.7" y="0">g</tspan><tspan x="493.61" y="0">ene</tspan><tspan class="cls-24" x="546.57" y="0">r</tspan><tspan class="cls-25" x="558.02" y="0">a</tspan><tspan x="574.64" y="0">tion in the 2000s.</tspan></text><rect class="cls-26" x="353.62" y="265.02" width="205.62" height="57.3"/><text class="cls-27" transform="translate(359.45 282.21)">The 2000–01 Cali<tspan class="cls-28" x="90.64" y="0">f</tspan><tspan x="94.34" y="0">ornia electricity</tspan><tspan x="0" y="15.6">crisis hits, leading </tspan><tspan class="cls-29" x="95.92" y="15.6">t</tspan><tspan x="100.15" y="15.6">o </tspan><tspan class="cls-30" x="109.94" y="15.6">r</tspan><tspan x="114.26" y="15.6">olling blac</tspan><tspan class="cls-31" x="167.5" y="15.6">k</tspan><tspan x="172.97" y="15.6">outs</tspan><tspan x="0" y="31.2">and s</tspan><tspan class="cls-32" x="27.91" y="31.2">e</tspan><tspan class="cls-33" x="34.32" y="31.2">v</tspan><tspan x="40.06" y="31.2">e</tspan><tspan class="cls-34" x="46.53" y="31.2">r</tspan><tspan x="50.89" y="31.2">e ene</tspan><tspan class="cls-35" x="80.06" y="31.2">r</tspan><tspan x="84.42" y="31.2">gy shor</tspan><tspan class="cls-36" x="122.66" y="31.2">t</tspan><tspan x="126.86" y="31.2">a</tspan><tspan class="cls-37" x="133.08" y="31.2">g</tspan><tspan class="cls-38" x="139.1" y="31.2">es.</tspan></text><path class="cls-26" d="M540.51,277.28"/><path class="cls-39" d="M522.13,312a169.94,169.94,0,0,1,68,33.36"/><path class="cls-40" d="M593.62,348.26a22.61,22.61,0,0,0-7.23-1.27l3.25-2,1.24-3.58A22.86,22.86,0,0,0,593.62,348.26Z"/><path class="cls-26" d="M756.53,143.66H613.21V94.3H756.53Z"/><text class="cls-27" transform="translate(616.42 107.43)">G<tspan class="cls-41" x="8.2" y="0">o</tspan><tspan class="cls-42" x="15" y="0">v</tspan><tspan class="cls-38" x="20.74" y="0">ernor G</tspan><tspan class="cls-43" x="61.1" y="0">r</tspan><tspan class="cls-11" x="65.37" y="0">a</tspan><tspan class="cls-38" x="71.35" y="0">y D</tspan><tspan class="cls-44" x="88.17" y="0">a</tspan><tspan x="94.19" y="0">vis is</tspan><tspan class="cls-45" x="0" y="15.6">r</tspan><tspan x="4.36" y="15.6">e</tspan><tspan class="cls-46" x="10.83" y="15.6">c</tspan><tspan x="16.22" y="15.6">alled, in part due </tspan><tspan class="cls-33" x="108.6" y="15.6">t</tspan><tspan x="112.82" y="15.6">o his</tspan><tspan x="0" y="31.2">i</tspan><tspan class="cls-47" x="2.98" y="31.2">n</tspan><tspan class="cls-48" x="9.6" y="31.2">v</tspan><tspan class="cls-49" x="15.35" y="31.2">ol</tspan><tspan class="cls-33" x="25.19" y="31.2">v</tspan><tspan class="cls-38" x="30.93" y="31.2">eme</tspan><tspan class="cls-50" x="54.25" y="31.2">n</tspan><tspan x="60.96" y="31.2">t in the crisis.</tspan></text><path class="cls-14" d="M750.76,131.85h5V380.43h-5Z"/><path class="cls-51" d="M677.87,143.66"/><path class="cls-51" d="M683.23,147.83"/><path class="cls-26" d="M667.91,147.83a105.46,105.46,0,0,0-24.51,31.4,104.22,104.22,0,0,0-7.66,19.92"/><path class="cls-39" d="M667.91,147.83a105.46,105.46,0,0,0-24.51,31.4,103.85,103.85,0,0,0-6.14,14.84"/><polygon class="cls-40" points="635.75 199.15 635.01 191.12 637.41 193.71 640.84 192.9 635.75 199.15"/><rect class="cls-1" width="854.02" height="443.49"/></svg>