<svg id="Layer_1" data-name="Layer 1" xmlns="http://www.w3.org/2000/svg" viewBox="0 0 854.02 443.49"><defs><style>.cls-1,.cls-2,.cls-36{fill:none;stroke-miterlimit:10;}.cls-1{stroke:#eaeaea;opacity:0.5;}.cls-2{stroke:#888;}.cls-3,.cls-4,.cls-6{isolation:isolate;}.cls-3,.cls-6{font-size:14px;}.cls-24,.cls-3,.cls-4{font-family:Calibri;}.cls-4{font-size:16px;}.cls-5{letter-spacing:-0.07em;}.cls-6{font-family:ArialMT, Arial;}.cls-7{letter-spacing:0em;}.cls-8{letter-spacing:-0.02em;}.cls-9{letter-spacing:0em;}.cls-10{letter-spacing:-0.01em;}.cls-11{fill:#ef7fe8;}.cls-12{font-size:34.32px;font-family:Calibri-Bold, Calibri;font-weight:700;}.cls-13{letter-spacing:-0.02em;}.cls-14{letter-spacing:-0.01em;}.cls-15{letter-spacing:-0.01em;}.cls-16{letter-spacing:-0.01em;}.cls-17{letter-spacing:0em;}.cls-18{letter-spacing:0em;}.cls-19{letter-spacing:-0.02em;}.cls-20{letter-spacing:-0.01em;}.cls-21{letter-spacing:-0.02em;}.cls-22{letter-spacing:-0.01em;}.cls-23{fill:#fff;}.cls-24{font-size:13px;}.cls-25{letter-spacing:-0.02em;}.cls-26{letter-spacing:-0.01em;}.cls-27{letter-spacing:-0.02em;}.cls-28{letter-spacing:-0.03em;}.cls-29{letter-spacing:0em;}.cls-30{letter-spacing:-0.01em;}.cls-31{letter-spacing:-0.01em;}.cls-32{letter-spacing:-0.01em;}.cls-33{letter-spacing:-0.01em;}.cls-34{letter-spacing:-0.01em;}.cls-35{letter-spacing:0em;}.cls-36{stroke:#1d1d1b;stroke-width:1.5px;}.cls-37{fill:#1d1d1b;}.cls-38{letter-spacing:0em;}.cls-39{letter-spacing:-0.01em;}.cls-40{letter-spacing:-0.02em;}.cls-41{letter-spacing:-0.02em;}.cls-42{letter-spacing:-0.01em;}.cls-43{letter-spacing:-0.01em;}.cls-44{letter-spacing:-0.02em;}.cls-45{letter-spacing:-0.01em;}.cls-46{letter-spacing:0em;}.cls-47{letter-spacing:-0.01em;}</style></defs><line class="cls-1" x1="42.52" y1="337.86" x2="837.96" y2="337.86"/><line class="cls-1" x1="42.52" y1="294.86" x2="838.02" y2="294.86"/><line class="cls-1" x1="42.52" y1="251.86" x2="837.99" y2="251.86"/><line class="cls-1" x1="42.52" y1="209.86" x2="837.99" y2="209.86"/><line class="cls-1" x1="42.52" y1="166.86" x2="837.99" y2="166.86"/><line class="cls-1" x1="42.52" y1="123.86" x2="838.02" y2="123.86"/><line class="cls-1" x1="42.52" y1="80.86" x2="838.02" y2="80.86"/><line class="cls-2" x1="42.52" y1="380.93" x2="42.52" y2="385.93"/><line class="cls-2" x1="307.11" y1="380.93" x2="307.11" y2="385.93"/><line class="cls-2" x1="569.59" y1="380.93" x2="569.59" y2="385.93"/><line class="cls-2" x1="839.01" y1="380.93" x2="839.01" y2="385.93"/><text class="cls-3" transform="translate(41.65 395.93)">1990</text><text class="cls-3" transform="translate(292.91 396.93)">2000</text><text class="cls-3" transform="translate(555.39 397.26)">2010</text><text class="cls-3" transform="translate(810.87 395.93)">2020</text><text class="cls-4" transform="translate(413.08 420.37)"><tspan class="cls-5">Y</tspan><tspan x="6.65" y="0">ear</tspan></text><line class="cls-2" x1="42.52" y1="380.93" x2="37.52" y2="380.93"/><line class="cls-2" x1="42.52" y1="337.93" x2="37.52" y2="337.93"/><line class="cls-2" x1="42.52" y1="294.93" x2="37.52" y2="294.93"/><line class="cls-2" x1="42.52" y1="251.93" x2="37.52" y2="251.93"/><line class="cls-2" x1="42.52" y1="209.93" x2="37.52" y2="209.93"/><line class="cls-2" x1="42.52" y1="166.93" x2="37.52" y2="166.93"/><line class="cls-2" x1="42.52" y1="123.93" x2="37.52" y2="123.93"/><line class="cls-2" x1="42.52" y1="80.93" x2="37.52" y2="80.93"/><text class="cls-6" transform="translate(25.17 381.93)">0</text><text class="cls-6" transform="translate(25.17 341.07)">5</text><text class="cls-6" transform="translate(17.39 298.21)">10</text><text class="cls-6" transform="translate(17.39 255.35)">15</text><text class="cls-6" transform="translate(17.39 212.5)">20</text><text class="cls-6" transform="translate(17.39 169.64)">25</text><text class="cls-6" transform="translate(17.39 126.78)">30</text><text class="cls-6" transform="translate(17.39 90.93)">35</text><line class="cls-2" x1="42.52" y1="380.93" x2="42.52" y2="80.93"/><text class="cls-4" transform="translate(17.48 67.88)">N<tspan class="cls-7" x="10.33" y="0">e</tspan><tspan x="18.21" y="0">w </tspan><tspan class="cls-8" x="33.27" y="0">g</tspan><tspan x="40.5" y="0">as p</tspan><tspan class="cls-9" x="66.45" y="0">o</tspan><tspan class="cls-10" x="74.82" y="0">w</tspan><tspan x="86.12" y="0">er units opened</tspan></text><path class="cls-11" d="M828.48,363.28h11v17.15h-11Z"/><path class="cls-11" d="M802.08,346.14h11v34.29h-11Z"/><path class="cls-11" d="M775.67,337.57h11v42.86h-11Z"/><path class="cls-11" d="M722.79,346.14h11v34.29h-11Z"/><path class="cls-11" d="M696.38,354.71h11v25.72h-11Z"/><path class="cls-11" d="M617.09,260.43h11v120h-11Z"/><path class="cls-11" d="M590.68,337.57h11v42.86h-11Z"/><path class="cls-11" d="M564.28,320.43h11v60h-11Z"/><path class="cls-11" d="M537.87,303.28h11v77.15h-11Z"/><path class="cls-11" d="M511.39,329h11v51.43h-11Z"/><path class="cls-11" d="M485,286.14h11v94.29H485Z"/><path class="cls-11" d="M458.58,329h11v51.43h-11Z"/><path class="cls-11" d="M432.17,191.85h11V380.43h-11Z"/><path class="cls-11" d="M405.69,354.71h11v25.72h-11Z"/><path class="cls-11" d="M379.29,209h11V380.43h-11Z"/><path class="cls-11" d="M352.88,209h11V380.43h-11Z"/><path class="cls-11" d="M326.47,97.57h11V380.43h-11Z"/><path class="cls-11" d="M220.77,354.71h11v25.72h-11Z"/><path class="cls-11" d="M194.3,363.28h11v17.15h-11Z"/><path class="cls-11" d="M167.89,354.71h11v25.72h-11Z"/><path class="cls-11" d="M141.48,354.71h11v25.72h-11Z"/><path class="cls-11" d="M115.08,363.28h11v17.15h-11Z"/><path class="cls-11" d="M88.6,346.14h11v34.29h-11Z"/><path class="cls-11" d="M62.19,354.71h11v25.72h-11Z"/><text class="cls-12" transform="translate(17.79 39.94)">Cali<tspan class="cls-13" x="51.96" y="0">f</tspan><tspan x="62.3" y="0">ornia s</tspan><tspan class="cls-14" x="158.18" y="0">a</tspan><tspan x="174.85" y="0">w a su</tspan><tspan class="cls-15" x="264.98" y="0">r</tspan><tspan class="cls-16" x="276.78" y="0">g</tspan><tspan class="cls-17" x="292.68" y="0">e of n</tspan><tspan class="cls-18" x="373.2" y="0">e</tspan><tspan x="390.3" y="0">w </tspan><tspan class="cls-19" x="423.63" y="0">g</tspan><tspan x="439.32" y="0">as </tspan><tspan class="cls-20" x="477.7" y="0">g</tspan><tspan x="493.61" y="0">ene</tspan><tspan class="cls-21" x="546.57" y="0">r</tspan><tspan class="cls-22" x="558.02" y="0">a</tspan><tspan x="574.64" y="0">tion in the 2000s.</tspan></text><rect class="cls-23" x="67.71" y="219.98" width="205.62" height="57.3"/><text class="cls-24" transform="translate(73.23 235.94)">The 2000–01 Cali<tspan class="cls-25" x="90.64" y="0">f</tspan><tspan x="94.34" y="0">ornia electricity</tspan><tspan x="0" y="15.6">crisis hits, leading </tspan><tspan class="cls-26" x="95.92" y="15.6">t</tspan><tspan x="100.15" y="15.6">o </tspan><tspan class="cls-27" x="109.94" y="15.6">r</tspan><tspan x="114.26" y="15.6">olling blac</tspan><tspan class="cls-28" x="167.5" y="15.6">k</tspan><tspan x="172.97" y="15.6">outs</tspan><tspan x="0" y="31.2">and s</tspan><tspan class="cls-29" x="27.91" y="31.2">e</tspan><tspan class="cls-30" x="34.32" y="31.2">v</tspan><tspan x="40.06" y="31.2">e</tspan><tspan class="cls-31" x="46.53" y="31.2">r</tspan><tspan x="50.89" y="31.2">e ene</tspan><tspan class="cls-32" x="80.06" y="31.2">r</tspan><tspan x="84.42" y="31.2">gy shor</tspan><tspan class="cls-33" x="122.66" y="31.2">t</tspan><tspan x="126.86" y="31.2">a</tspan><tspan class="cls-34" x="133.08" y="31.2">g</tspan><tspan class="cls-35" x="139.1" y="31.2">es.</tspan></text><path class="cls-36" d="M238.48,262.43a169.42,169.42,0,0,1,68,33.36"/><path class="cls-37" d="M310,298.68a22.5,22.5,0,0,0-7.23-1.26l3.25-2,1.24-3.59A22.65,22.65,0,0,0,310,298.68Z"/><path class="cls-23" d="M573.68,148.54H430.36V99.18H573.68Z"/><text class="cls-24" transform="translate(432.17 112.57)">G<tspan class="cls-38" x="8.2" y="0">o</tspan><tspan class="cls-39" x="15" y="0">v</tspan><tspan class="cls-35" x="20.74" y="0">ernor G</tspan><tspan class="cls-40" x="61.1" y="0">r</tspan><tspan class="cls-8" x="65.37" y="0">a</tspan><tspan class="cls-35" x="71.35" y="0">y D</tspan><tspan class="cls-41" x="88.17" y="0">a</tspan><tspan x="94.19" y="0">vis is</tspan><tspan class="cls-42" x="0" y="15.6">r</tspan><tspan x="4.36" y="15.6">e</tspan><tspan class="cls-43" x="10.83" y="15.6">c</tspan><tspan x="16.22" y="15.6">alled, in part due </tspan><tspan class="cls-30" x="108.6" y="15.6">t</tspan><tspan x="112.82" y="15.6">o his</tspan><tspan x="0" y="31.2">i</tspan><tspan class="cls-44" x="2.98" y="31.2">n</tspan><tspan class="cls-45" x="9.6" y="31.2">v</tspan><tspan class="cls-46" x="15.35" y="31.2">ol</tspan><tspan class="cls-30" x="25.19" y="31.2">v</tspan><tspan class="cls-35" x="30.93" y="31.2">eme</tspan><tspan class="cls-47" x="54.25" y="31.2">n</tspan><tspan x="60.96" y="31.2">t in the crisis.</tspan></text><path class="cls-11" d="M643.57,131.85h11V380.43h-11Z"/><path class="cls-36" d="M421.78,148.42a105.14,105.14,0,0,0-24.51,31.4,104,104,0,0,0-6.15,14.84"/><polygon class="cls-37" points="389.61 199.74 388.87 191.71 391.27 194.3 394.7 193.49 389.61 199.74"/><line class="cls-2" x1="839.52" y1="380.88" x2="42.84" y2="380.93"/></svg>