<?xml version="1.0" encoding="UTF-8"?><svg id="Layer_1" xmlns="http://www.w3.org/2000/svg" width="50" height="50" viewBox="0 0 50 50"><defs><style>.cls-1{fill:#000;stroke-width:0px;}</style></defs><path class="cls-1" d="M40.03,20.97v20.47c0,1.67-1.37,3.04-3.04,3.04H8.56c-1.68,0-3.04-1.37-3.04-3.04V13.01c0-1.67,1.36-3.04,3.04-3.04h20.47v-5.52H8.56C3.84,4.45,0,8.29,0,13.01v28.43C0,46.16,3.84,50,8.56,50h28.43c4.72,0,8.56-3.84,8.56-8.56v-20.47h-5.52Z"/><path class="cls-1" d="M46.99,0h-15.38c-.61,0-1.1.49-1.1,1.1v4.41c0,.62.5,1.12,1.12,1.12h6.21l-18.35,18.35c-.8.8-.8,2.09,0,2.88l2.64,2.64c.8.8,2.09.8,2.89,0l18.35-18.35v6.25c0,.61.49,1.1,1.1,1.1h4.43c.61,0,1.1-.49,1.1-1.1V3.01c0-1.66-1.35-3.01-3.01-3.01Z"/></svg>