<svg id="Layer_1" data-name="Layer 1" xmlns="http://www.w3.org/2000/svg" viewBox="0 0 1500 800"><defs><style>.cls-1,.cls-16,.cls-29{fill:none;}.cls-1,.cls-29{stroke:#333;stroke-miterlimit:10;}.cls-1{stroke-width:0.5px;}.cls-1,.cls-11,.cls-14,.cls-16,.cls-28,.cls-29,.cls-7{opacity:0.5;}.cls-14,.cls-2,.cls-7{font-size:29px;}.cls-2,.cls-7{font-family:Calibri;}.cls-3{letter-spacing:-0.02em;}.cls-4{letter-spacing:-0.01em;}.cls-5{letter-spacing:-0.01em;}.cls-6{letter-spacing:-0.01em;}.cls-8{fill:#ea98da;}.cls-9{letter-spacing:-0.04em;}.cls-10{letter-spacing:-0.01em;}.cls-11{fill:#e0dada;}.cls-12{letter-spacing:-0.01em;}.cls-13{letter-spacing:-0.01em;}.cls-14{font-family:Calibri-Bold, Calibri;font-weight:700;}.cls-15{letter-spacing:0em;}.cls-17,.cls-28{fill:#8e2839;}.cls-18{fill:#f74343;}.cls-19{letter-spacing:-0.01em;}.cls-20{letter-spacing:-0.01em;}.cls-21{letter-spacing:0.01em;}.cls-22{letter-spacing:0em;}.cls-23{letter-spacing:0em;}.cls-24{letter-spacing:-0.02em;}.cls-25{letter-spacing:0em;}.cls-26{letter-spacing:-0.02em;}.cls-27{letter-spacing:-0.02em;}</style></defs><line class="cls-1" x1="497.9" y1="71.5" x2="497.9" y2="660.35"/><line class="cls-1" x1="701.36" y1="71.5" x2="701.36" y2="660.35"/><line class="cls-1" x1="904.82" y1="71.5" x2="904.82" y2="660.35"/><line class="cls-1" x1="1108.28" y1="71.5" x2="1108.28" y2="660.35"/><line class="cls-1" x1="292.16" y1="71.5" x2="292.16" y2="660.35"/><line class="cls-1" x1="395.43" y1="72.03" x2="395.43" y2="660.88"/><line class="cls-1" x1="598.89" y1="72.03" x2="598.89" y2="660.88"/><line class="cls-1" x1="802.35" y1="72.03" x2="802.35" y2="660.88"/><line class="cls-1" x1="1005.81" y1="72.03" x2="1005.81" y2="660.88"/><text class="cls-2" transform="translate(103.47 110.62)">B<tspan class="cls-3" x="15.77" y="0">r</tspan><tspan x="25.42" y="0">o</tspan><tspan class="cls-4" x="40.71" y="0">n</tspan><tspan x="55.68" y="0">x</tspan></text><text class="cls-2" transform="translate(34.83 628)">Manh<tspan class="cls-4" x="69.16" y="0">a</tspan><tspan class="cls-5" x="82.78" y="0">tt</tspan><tspan x="100.82" y="0">an</tspan></text><text class="cls-2" transform="translate(75.8 243.85)">Queens</text><text class="cls-2" transform="translate(58.81 366.02)">B<tspan class="cls-3" x="15.77" y="0">r</tspan><tspan x="25.42" y="0">ooklyn</tspan></text><text class="cls-2" transform="translate(19.45 497.92)">S<tspan class="cls-5" x="13.32" y="0">t</tspan><tspan class="cls-4" x="22.68" y="0">a</tspan><tspan class="cls-6" x="36.31" y="0">t</tspan><tspan x="45.71" y="0">en Island</tspan></text><text class="cls-7" transform="translate(184.96 695.97)">0</text><text class="cls-7" transform="translate(279.73 696.25)">10</text><text class="cls-7" transform="translate(382.19 696.62)">20</text><text class="cls-7" transform="translate(484.3 695.83)">30</text><text class="cls-7" transform="translate(585.33 696.78)">40</text><text class="cls-7" transform="translate(687.79 697.15)">50</text><text class="cls-7" transform="translate(789.91 696.36)">60</text><text class="cls-7" transform="translate(890.2 697.16)">70</text><text class="cls-7" transform="translate(991.24 698.11)">80</text><text class="cls-7" transform="translate(1093.7 698.48)">90</text><text class="cls-7" transform="translate(1166.42 697.7)">100</text><text class="cls-2" transform="translate(1289.71 427.28)">One</text><rect class="cls-8" x="1242.17" y="467.7" width="31.69" height="31.29" transform="translate(1741.36 -774.67) rotate(90)"/><text class="cls-2" transform="translate(1289.51 490.64)"><tspan class="cls-9">T</tspan><tspan class="cls-10" x="12.91" y="0">w</tspan><tspan x="33.38" y="0">o</tspan></text><rect class="cls-11" x="1242.61" y="529.36" width="31.01" height="31.29" transform="translate(1803.13 -713.11) rotate(90)"/><text class="cls-7" transform="translate(1289.62 553.92)">Mo<tspan class="cls-12" x="40.09" y="0">r</tspan><tspan x="49.82" y="0">e than t</tspan><tspan class="cls-13" x="141.15" y="0">w</tspan><tspan x="161.61" y="0">o</tspan></text><text class="cls-14" transform="translate(609.68 753.84)">% of popul<tspan class="cls-13" x="128.42" y="0">a</tspan><tspan class="cls-15" x="142.47" y="0">tion</tspan></text><rect class="cls-16" y="1.5" width="1500" height="800"/><rect class="cls-17" x="162.35" y="97.92" width="69.1" height="15.79" transform="translate(302.72 -91.08) rotate(90)"/><rect class="cls-8" x="497.3" y="-181.76" width="69.1" height="575.15" transform="translate(637.67 -426.03) rotate(90)"/><rect class="cls-11" x="979.66" y="-88.97" width="69.1" height="389.57" transform="translate(1120.03 -908.39) rotate(90)"/><rect class="cls-18" x="189.99" y="86.08" width="69.1" height="39.48" transform="translate(330.35 -118.72) rotate(90)"/><rect class="cls-18" x="1242.22" y="404.91" width="32.19" height="31.36" transform="translate(1678.91 -837.72) rotate(90)"/><rect class="cls-17" x="1241.93" y="341.54" width="32.19" height="31.36" transform="translate(1615.24 -900.8) rotate(90)"/><text class="cls-14" transform="translate(1265.03 228.52)">I<tspan class="cls-10" x="7.73" y="0">n</tspan><tspan class="cls-19" x="23.02" y="0">t</tspan><tspan x="32.72" y="0">ern</tspan><tspan class="cls-20" x="73.19" y="0">e</tspan><tspan x="87.59" y="0">t se</tspan><tspan class="cls-21" x="130.37" y="0">r</tspan><tspan class="cls-22" x="140.94" y="0">vice</tspan><tspan x="37.48" y="34.8">p</tspan><tspan class="cls-19" x="53.04" y="34.8">r</tspan><tspan class="cls-23" x="63" y="34.8">o</tspan><tspan x="78.5" y="34.8">vide</tspan><tspan class="cls-19" x="129.51" y="34.8">r</tspan><tspan x="139.46" y="34.8">s</tspan><tspan x="-11.94" y="69.6">o</tspan><tspan class="cls-24" x="3.65" y="69.6">ff</tspan><tspan x="20.56" y="69.6">ering 100Mb</tspan><tspan class="cls-25" x="173.46" y="69.6">p</tspan><tspan class="cls-22" x="188.88" y="69.6">s</tspan></text><text class="cls-2" transform="translate(1289.27 365.59)"><tspan class="cls-26">Z</tspan><tspan class="cls-15" x="13.14" y="0">e</tspan><tspan class="cls-27" x="27.57" y="0">r</tspan><tspan x="37.21" y="0">o</tspan></text><rect class="cls-8" x="532.38" y="-112.8" width="69.1" height="705.06" transform="translate(806.66 -327.2) rotate(90)"/><rect class="cls-11" x="1029.68" y="94.96" width="69.1" height="289.54" transform="translate(1303.96 -824.5) rotate(90)"/><rect class="cls-18" x="168.15" y="228.03" width="69.1" height="23.4" transform="translate(442.43 37.03) rotate(90)"/><rect class="cls-28" x="155.65" y="238.85" width="69.1" height="1.76" transform="translate(429.93 49.53) rotate(90)"/><rect class="cls-8" x="337.85" y="195.95" width="69.1" height="338.33" transform="translate(737.52 -7.28) rotate(90)"/><rect class="cls-11" x="840.73" y="31.4" width="69.1" height="667.44" transform="translate(1240.4 -510.16) rotate(90)"/><rect class="cls-18" x="163.42" y="359.85" width="69.1" height="10.53" transform="translate(563.09 167.14) rotate(90)"/><rect class="cls-17" x="156.46" y="363.42" width="69.1" height="3.4" transform="translate(556.12 174.11) rotate(90)"/><rect class="cls-8" x="667.82" y="-14.56" width="69.1" height="1010.63" transform="translate(1193.12 -211.61) rotate(90)"/><rect class="cls-11" x="1173.79" y="490.1" width="69.1" height="1.32" transform="translate(1699.1 -717.59) rotate(90)"/><rect class="cls-18" x="158.87" y="487.17" width="69.1" height="7.17" transform="translate(684.17 297.34) rotate(90)"/><rect class="cls-8" x="164.25" y="608.07" width="69.1" height="17.59" transform="translate(815.66 418.07) rotate(90)"/><rect class="cls-11" x="673.75" y="116.16" width="69.1" height="1001.41" transform="translate(1325.16 -91.43) rotate(90)"/><line class="cls-1" x1="1209.27" y1="72.2" x2="1209.27" y2="660.88"/><line class="cls-29" x1="189.45" y1="72.03" x2="189.45" y2="660.88"/><rect class="cls-16" x="0.5" y="2" width="1500" height="799"/></svg>