<svg id="Layer_1" data-name="Layer 1" xmlns="http://www.w3.org/2000/svg" viewBox="0 0 132.77 755.54"><defs><style>.cls-1{fill:none;}.cls-2{fill:#fdedec;}.cls-3{fill:#ebf5fb;}.cls-4{fill:#d6eaf8;}.cls-5{fill:#aed6f1;}.cls-6{fill:#85c1e9;}.cls-7{fill:#5dade2;}.cls-8{fill:#3498db;}.cls-9{fill:#2e86c1;}.cls-10{fill:#2874a6;}.cls-11{fill:#21618c;}.cls-12{fill:#1b4f72;}.cls-13,.cls-14{isolation:isolate;font-family:Calibri;}.cls-13{font-size:19.33px;}.cls-14{font-size:21.75px;}.cls-15{letter-spacing:-0.02em;}.cls-16{letter-spacing:-0.01em;}.cls-17{letter-spacing:-0.01em;}.cls-18{letter-spacing:0em;}.cls-19{fill:#154360;}.cls-20{fill:#fadbd8;}.cls-21{fill:#f5b7b1;}.cls-22{fill:#f1948a;}.cls-23{fill:#ec7063;}.cls-24{fill:#e74c3c;}.cls-25{fill:#cb4335;}.cls-26{fill:#b03a2e;}.cls-27{fill:#943126;}.cls-28{fill:#78281f;}</style></defs><path class="cls-1" d="M31.89,124.39Z" transform="translate(0 -1)"/><path class="cls-2" d="M31.89,422.07H58.08v29.76H31.89Z" transform="translate(0 -1)"/><path class="cls-3" d="M31.89,392.3H58.08v29.77H31.89Z" transform="translate(0 -1)"/><path class="cls-4" d="M31.89,362.53H58.08V392.3H31.89Z" transform="translate(0 -1)"/><path class="cls-5" d="M31.89,332.77H58.08v29.76H31.89Z" transform="translate(0 -1)"/><path class="cls-6" d="M31.89,303H58.08v29.77H31.89Z" transform="translate(0 -1)"/><path class="cls-7" d="M31.89,273.23H58.08V303H31.89Z" transform="translate(0 -1)"/><path class="cls-8" d="M31.89,243.46H58.08v29.77H31.89Z" transform="translate(0 -1)"/><path class="cls-9" d="M31.89,213.7H58.08v29.76H31.89Z" transform="translate(0 -1)"/><path class="cls-10" d="M31.89,183.93H58.08V213.7H31.89Z" transform="translate(0 -1)"/><path class="cls-11" d="M31.89,154.16H58.08v29.77H31.89Z" transform="translate(0 -1)"/><path class="cls-12" d="M31.89,124.39H58.08v29.77H31.89Z" transform="translate(0 -1)"/><text class="cls-13" transform="translate(65.75 425.49)">0</text><text class="cls-13" transform="translate(65.75 366.29)">20</text><text class="cls-13" transform="translate(65.75 306.42)">40</text><text class="cls-13" transform="translate(65.75 248.17)">60</text><text class="cls-13" transform="translate(65.75 188.3)">80</text><text class="cls-14" transform="translate(18.71 33.07)"><tspan class="cls-15">P</tspan><tspan x="10.8" y="0">opul</tspan><tspan class="cls-16" x="50.12" y="0">a</tspan><tspan x="60.33" y="0">tion</tspan><tspan x="-0.83" y="26.1">chan</tspan><tspan class="cls-17" x="41.64" y="26.1">g</tspan><tspan class="cls-18" x="51.7" y="26.1">e (%)</tspan></text><path class="cls-19" d="M31.89,94.63H58.08v29.76H31.89Z" transform="translate(0 -1)"/><text class="cls-13" transform="translate(65.75 125.14)">100+</text><path class="cls-20" d="M31.89,451.83H58.08V481.6H31.89Z" transform="translate(0 -1)"/><path class="cls-21" d="M31.89,481.6H58.08v29.77H31.89Z" transform="translate(0 -1)"/><path class="cls-22" d="M31.89,511.37H58.08v29.77H31.89Z" transform="translate(0 -1)"/><path class="cls-23" d="M31.89,541.14H58.08V570.9H31.89Z" transform="translate(0 -1)"/><path class="cls-24" d="M31.89,570.9H58.08v29.77H31.89Z" transform="translate(0 -1)"/><path class="cls-25" d="M31.89,600.67H58.08v29.77H31.89Z" transform="translate(0 -1)"/><path class="cls-26" d="M31.89,630.44H58.08v29.77H31.89Z" transform="translate(0 -1)"/><path class="cls-27" d="M31.89,660.21H58.08V690H31.89Z" transform="translate(0 -1)"/><path class="cls-28" d="M31.89,690H58.08v29.77H31.89Z" transform="translate(0 -1)"/><text class="cls-13" transform="translate(65.75 485.57)">-20</text><text class="cls-13" transform="translate(65.75 545.15)">-40</text><text class="cls-13" transform="translate(65.75 604.69)">-60</text><text class="cls-13" transform="translate(65.75 663.87)">-80</text><text class="cls-13" transform="translate(65.75 723.61)">-100</text><rect class="cls-1" x="-311.39" y="312.39" width="755.54" height="132.77" transform="translate(-312.39 444.15) rotate(-90)"/></svg>