<?xml version="1.0" encoding="utf-8"?>
<!-- Generator: Adobe Illustrator 25.2.3, SVG Export Plug-In . SVG Version: 6.00 Build 0)  -->
<svg version="1.1" id="Layer_1" xmlns="http://www.w3.org/2000/svg" xmlns:xlink="http://www.w3.org/1999/xlink" x="0px" y="0px"
	 viewBox="0 0 946.3 548.9" style="enable-background:new 0 0 946.3 548.9;" xml:space="preserve">
<style type="text/css">
	.st0{fill:none;}
	.st1{fill:none;stroke:#DEDDDD;stroke-miterlimit:10;}
	.st2{opacity:0.5;fill:none;stroke:#DEDDDD;stroke-miterlimit:10;}
	.st3{display:none;fill:none;stroke:#DEDDDD;stroke-miterlimit:10;}
	.st4{fill:none;stroke:#888888;stroke-miterlimit:10;}
	.st5{font-family:'Calibri';}
	.st6{font-size:14px;}
	.st7{font-family:'Calibri-Bold';}
	.st8{font-size:16px;}
	.st9{display:none;}
	.st10{enable-background:new    ;}
	.st11{opacity:0.55;fill:#800080;enable-background:new    ;}
	.st12{opacity:0.55;fill:#FFA500;enable-background:new    ;}
	.st13{opacity:0.55;fill:#0000FF;enable-background:new    ;}
	.st14{opacity:0.55;fill:#FF0000;enable-background:new    ;}
	.st15{font-size:42.4363px;}
	.st16{font-size:17.6613px;}
	.st17{opacity:0.55;fill:#008000;enable-background:new    ;}
	.st18{fill:#FFFFFF;}
	.st19{font-size:18.9408px;}
</style>
<path pointer-events="none" class="st0" d="M160.5,482.4L160.5,482.4L160.5,482.4L160.5,482.4z"/>
<line class="st1" x1="160.5" y1="82.4" x2="160.5" y2="482.4"/>
<line class="st2" x1="193.5" y1="82.4" x2="193.5" y2="482.4"/>
<line class="st2" x1="225.5" y1="82.4" x2="225.5" y2="482.4"/>
<line class="st2" x1="258.5" y1="82.4" x2="258.5" y2="482.4"/>
<line class="st2" x1="290.5" y1="82.4" x2="290.5" y2="482.4"/>
<line class="st2" x1="323.5" y1="82.4" x2="323.5" y2="482.4"/>
<line class="st2" x1="355.5" y1="82.4" x2="355.5" y2="482.4"/>
<line class="st2" x1="387.5" y1="82.4" x2="387.5" y2="482.4"/>
<line class="st2" x1="420.5" y1="82.4" x2="420.5" y2="482.4"/>
<line class="st2" x1="453.5" y1="82.4" x2="453.5" y2="482.4"/>
<line class="st2" x1="485.5" y1="82.4" x2="485.5" y2="482.4"/>
<line class="st2" x1="518.5" y1="82.4" x2="518.5" y2="482.4"/>
<line class="st2" x1="550.5" y1="82.4" x2="550.5" y2="482.4"/>
<line class="st2" x1="583.5" y1="82.4" x2="583.5" y2="482.4"/>
<line class="st2" x1="615.5" y1="82.4" x2="615.5" y2="482.4"/>
<line class="st2" x1="648.5" y1="82.4" x2="648.5" y2="482.4"/>
<line class="st2" x1="680.5" y1="82.4" x2="680.5" y2="482.4"/>
<line class="st2" x1="713.5" y1="82.4" x2="713.5" y2="482.4"/>
<line class="st2" x1="745.5" y1="82.4" x2="745.5" y2="482.4"/>
<line class="st2" x1="778.5" y1="82.4" x2="778.5" y2="482.4"/>
<path pointer-events="none" class="st3" d="M160.5,482.4"/>
<path pointer-events="none" class="st0" d="M160.5,82.4L160.5,82.4L160.5,82.4L160.5,82.4z"/>
<line class="st1" x1="160.5" y1="482.4" x2="810.5" y2="482.4"/>
<line class="st2" x1="160.5" y1="425.4" x2="810.5" y2="425.4"/>
<line class="st2" x1="160.5" y1="368.4" x2="810.5" y2="368.4"/>
<line class="st2" x1="160.5" y1="311.4" x2="810.5" y2="311.4"/>
<line class="st2" x1="160.5" y1="253.4" x2="810.5" y2="253.4"/>
<line class="st2" x1="160.5" y1="196.4" x2="810.5" y2="196.4"/>
<line class="st2" x1="160.5" y1="139.4" x2="810.5" y2="139.4"/>
<line class="st2" x1="160.5" y1="82.4" x2="810.5" y2="82.4"/>
<path pointer-events="none" class="st3" d="M160.5,82.4"/>
<path pointer-events="none" class="st0" d="M160.5,482.4L160.5,482.4L160.5,482.4L160.5,482.4z"/>
<line class="st4" x1="160.5" y1="482.4" x2="160.5" y2="484.4"/>
<line class="st4" x1="225.5" y1="482.4" x2="225.5" y2="484.4"/>
<line class="st4" x1="290.5" y1="482.4" x2="290.5" y2="484.4"/>
<line class="st4" x1="355.5" y1="482.4" x2="355.5" y2="484.4"/>
<line class="st4" x1="420.5" y1="482.4" x2="420.5" y2="484.4"/>
<line class="st4" x1="485.5" y1="482.4" x2="485.5" y2="484.4"/>
<line class="st4" x1="550.5" y1="482.4" x2="550.5" y2="484.4"/>
<line class="st4" x1="615.5" y1="482.4" x2="615.5" y2="484.4"/>
<line class="st4" x1="680.5" y1="482.4" x2="680.5" y2="484.4"/>
<line class="st4" x1="745.5" y1="482.4" x2="745.5" y2="484.4"/>
<line class="st4" x1="810.5" y1="482.4" x2="810.5" y2="484.4"/>
<text transform="matrix(1 0 0 1 156.9521 497.4149)" class="st5 st6">0</text>
<text transform="matrix(1 0 0 1 218.4043 497.4149)" class="st5 st6">10</text>
<text transform="matrix(1 0 0 1 283.4043 497.4149)" class="st5 st6">20</text>
<text transform="matrix(1 0 0 1 348.4043 497.4149)" class="st5 st6">30</text>
<text transform="matrix(1 0 0 1 413.4043 497.4149)" class="st5 st6">40</text>
<text transform="matrix(1 0 0 1 478.4043 497.4149)" class="st5 st6">50</text>
<text transform="matrix(1 0 0 1 543.4043 497.4149)" class="st5 st6">60</text>
<text transform="matrix(1 0 0 1 608.4043 497.4149)" class="st5 st6">70</text>
<text transform="matrix(1 0 0 1 673.4043 497.4149)" class="st5 st6">80</text>
<text transform="matrix(1 0 0 1 738.4043 497.4149)" class="st5 st6">90</text>
<text transform="matrix(1 0 0 1 789.5148 497.4149)" class="st5 st6">100</text>
<text transform="matrix(1 0 0 1 414.7221 524.9149)" class="st7 st8">% students in poverty</text>
<path pointer-events="none" class="st9" d="M160.5,482.4"/>
<path pointer-events="none" class="st0" d="M160.5,82.4L160.5,82.4L160.5,82.4L160.5,82.4z"/>
<line class="st4" x1="160.5" y1="482.4" x2="158.5" y2="482.4"/>
<line class="st4" x1="160.5" y1="425.4" x2="158.5" y2="425.4"/>
<line class="st4" x1="160.5" y1="368.4" x2="158.5" y2="368.4"/>
<line class="st4" x1="160.5" y1="311.4" x2="158.5" y2="311.4"/>
<line class="st4" x1="160.5" y1="253.4" x2="158.5" y2="253.4"/>
<line class="st4" x1="160.5" y1="196.4" x2="158.5" y2="196.4"/>
<line class="st4" x1="160.5" y1="139.4" x2="158.5" y2="139.4"/>
<line class="st4" x1="160.5" y1="82.4" x2="158.5" y2="82.4"/>
<text transform="matrix(1 0 0 1 149.4043 486.4149)" class="st5 st6">0</text>
<text transform="matrix(1 0 0 1 149.4043 429.272)" class="st5 st6">5</text>
<text transform="matrix(1 0 0 1 142.3086 372.1292)" class="st5 st6">10</text>
<text transform="matrix(1 0 0 1 142.3086 314.9863)" class="st5 st6">15</text>
<text transform="matrix(1 0 0 1 142.3086 257.8435)" class="st5 st6">20</text>
<text transform="matrix(1 0 0 1 142.3086 200.7006)" class="st5 st6">25</text>
<text transform="matrix(1 0 0 1 142.3086 143.5578)" class="st5 st6">30</text>
<text transform="matrix(1 0 0 1 142.3086 91.4149)" class="st5 st6">35</text>
<line class="st4" x1="160.5" y1="482.4" x2="160.5" y2="81.9"/>
<text transform="matrix(1 0 0 1 23.6953 267.772)" class="st10"><tspan x="0" y="0" class="st7 st8">% households</tspan><tspan x="-9.4" y="19.2" class="st7 st8">without internet</tspan><tspan x="24.7" y="38.4" class="st7 st8">access</tspan></text>
<path pointer-events="none" class="st9" d="M160.5,82.4"/>
<path class="st11" d="M533.7,377.9c0,2.5-2,4.5-4.5,4.5s-4.5-2-4.5-4.5c0-2.5,2-4.5,4.5-4.5S533.7,375.4,533.7,377.9"/>
<path class="st11" d="M612.3,128.8c0,2.5-2,4.5-4.5,4.5c-2.5,0-4.5-2-4.5-4.5c0-2.5,2-4.5,4.5-4.5
	C610.3,124.3,612.3,126.3,612.3,128.8"/>
<path class="st11" d="M540.8,390.5c0,2.5-2,4.5-4.5,4.5c-2.5,0-4.5-2-4.5-4.5c0-2.5,2-4.5,4.5-4.5C538.8,386,540.8,388,540.8,390.5"
	/>
<path class="st11" d="M526.5,472.8c0,2.5-2,4.5-4.5,4.5s-4.5-2-4.5-4.5c0-2.5,2-4.5,4.5-4.5S526.5,470.3,526.5,472.8"/>
<path class="st11" d="M620.8,468.2c0,2.5-2,4.5-4.5,4.5s-4.5-2-4.5-4.5c0-2.5,2-4.5,4.5-4.5S620.8,465.7,620.8,468.2"/>
<path class="st11" d="M678,465.9c0,2.5-2,4.5-4.5,4.5s-4.5-2-4.5-4.5c0-2.5,2-4.5,4.5-4.5S678,463.4,678,465.9"/>
<path class="st11" d="M607.8,285.3c0,2.5-2,4.5-4.5,4.5s-4.5-2-4.5-4.5c0-2.5,2-4.5,4.5-4.5S607.8,282.9,607.8,285.3"/>
<path class="st11" d="M497.3,385.9c0,2.5-2,4.5-4.5,4.5s-4.5-2-4.5-4.5c0-2.5,2-4.5,4.5-4.5S497.3,383.4,497.3,385.9"/>
<path class="st11" d="M533,414.5c0,2.5-2,4.5-4.5,4.5s-4.5-2-4.5-4.5c0-2.5,2-4.5,4.5-4.5S533,412,533,414.5"/>
<path class="st11" d="M457.6,304.8c0,2.5-2,4.5-4.5,4.5s-4.5-2-4.5-4.5c0-2.5,2-4.5,4.5-4.5S457.6,302.3,457.6,304.8"/>
<path class="st11" d="M436.8,412.2c0,2.5-2,4.5-4.5,4.5s-4.5-2-4.5-4.5c0-2.5,2-4.5,4.5-4.5S436.8,409.7,436.8,412.2"/>
<path class="st11" d="M527.2,393.9c0,2.5-2,4.5-4.5,4.5s-4.5-2-4.5-4.5c0-2.5,2-4.5,4.5-4.5S527.2,391.4,527.2,393.9"/>
<path class="st11" d="M494.7,417.9c0,2.5-2,4.5-4.5,4.5s-4.5-2-4.5-4.5c0-2.5,2-4.5,4.5-4.5S494.7,415.4,494.7,417.9"/>
<path class="st11" d="M665,379.1c0,2.5-2,4.5-4.5,4.5s-4.5-2-4.5-4.5c0-2.5,2-4.5,4.5-4.5S665,376.6,665,379.1"/>
<path class="st11" d="M333.5,415.6c0,2.5-2,4.5-4.5,4.5s-4.5-2-4.5-4.5c0-2.5,2-4.5,4.5-4.5S333.5,413.2,333.5,415.6"/>
<path class="st11" d="M432.3,401.9c0,2.5-2,4.5-4.5,4.5s-4.5-2-4.5-4.5c0-2.5,2-4.5,4.5-4.5S432.3,399.4,432.3,401.9"/>
<path class="st11" d="M420.6,406.5c0,2.5-2,4.5-4.5,4.5s-4.5-2-4.5-4.5c0-2.5,2-4.5,4.5-4.5S420.6,404,420.6,406.5"/>
<path class="st11" d="M413.4,399.6c0,2.5-2,4.5-4.5,4.5c-2.5,0-4.5-2-4.5-4.5c0-2.5,2-4.5,4.5-4.5
	C411.4,395.2,413.4,397.2,413.4,399.6"/>
<path class="st11" d="M506.4,350.5c0,2.5-2,4.5-4.5,4.5s-4.5-2-4.5-4.5c0-2.5,2-4.5,4.5-4.5S506.4,348,506.4,350.5"/>
<path class="st11" d="M672.1,272.8c0,2.5-2,4.5-4.5,4.5c-2.5,0-4.5-2-4.5-4.5c0-2.5,2-4.5,4.5-4.5
	C670.1,268.3,672.1,270.3,672.1,272.8"/>
<path class="st11" d="M698.1,257.9c0,2.5-2,4.5-4.5,4.5s-4.5-2-4.5-4.5c0-2.5,2-4.5,4.5-4.5S698.1,255.4,698.1,257.9"/>
<path class="st11" d="M231.4,429.3c0,2.5-2,4.5-4.5,4.5s-4.5-2-4.5-4.5c0-2.5,2-4.5,4.5-4.5S231.4,426.9,231.4,429.3"/>
<path class="st11" d="M685.1,229.3c0,2.5-2,4.5-4.5,4.5s-4.5-2-4.5-4.5c0-2.5,2-4.5,4.5-4.5S685.1,226.9,685.1,229.3"/>
<path class="st11" d="M717,271.6c0,2.5-2,4.5-4.5,4.5s-4.5-2-4.5-4.5c0-2.5,2-4.5,4.5-4.5S717,269.2,717,271.6"/>
<path class="st11" d="M700.7,275.1c0,2.5-2,4.5-4.5,4.5s-4.5-2-4.5-4.5c0-2.5,2-4.5,4.5-4.5S700.7,272.6,700.7,275.1"/>
<path class="st11" d="M743,247.6c0,2.5-2,4.5-4.5,4.5s-4.5-2-4.5-4.5c0-2.5,2-4.5,4.5-4.5S743,245.2,743,247.6"/>
<path class="st11" d="M713.7,287.6c0,2.5-2,4.5-4.5,4.5s-4.5-2-4.5-4.5c0-2.5,2-4.5,4.5-4.5S713.7,285.2,713.7,287.6"/>
<path class="st11" d="M705.3,288.8c0,2.5-2,4.5-4.5,4.5s-4.5-2-4.5-4.5c0-2.5,2-4.5,4.5-4.5S705.3,286.3,705.3,288.8"/>
<path class="st11" d="M730.6,164.2c0,2.5-2,4.5-4.5,4.5s-4.5-2-4.5-4.5s2-4.5,4.5-4.5S730.6,161.7,730.6,164.2"/>
<path class="st11" d="M414.7,350.5c0,2.5-2,4.5-4.5,4.5s-4.5-2-4.5-4.5c0-2.5,2-4.5,4.5-4.5S414.7,348,414.7,350.5"/>
<path class="st11" d="M722.8,244.2c0,2.5-2,4.5-4.5,4.5s-4.5-2-4.5-4.5c0-2.5,2-4.5,4.5-4.5S722.8,241.7,722.8,244.2"/>
<path class="st11" d="M535,291.1c0,2.5-2,4.5-4.5,4.5s-4.5-2-4.5-4.5c0-2.5,2-4.5,4.5-4.5S535,288.6,535,291.1"/>
<path class="st11" d="M730.6,276.2c0,2.5-2,4.5-4.5,4.5s-4.5-2-4.5-4.5c0-2.5,2-4.5,4.5-4.5S730.6,273.7,730.6,276.2"/>
<path class="st11" d="M689,303.6c0,2.5-2,4.5-4.5,4.5s-4.5-2-4.5-4.5c0-2.5,2-4.5,4.5-4.5S689,301.2,689,303.6"/>
<path class="st11" d="M339.3,393.9c0,2.5-2,4.5-4.5,4.5s-4.5-2-4.5-4.5c0-2.5,2-4.5,4.5-4.5S339.3,391.4,339.3,393.9"/>
<path class="st11" d="M430.3,403.1c0,2.5-2,4.5-4.5,4.5s-4.5-2-4.5-4.5c0-2.5,2-4.5,4.5-4.5S430.3,400.6,430.3,403.1"/>
<path class="st11" d="M601.3,437.3c0,2.5-2,4.5-4.5,4.5s-4.5-2-4.5-4.5c0-2.5,2-4.5,4.5-4.5S601.3,434.9,601.3,437.3"/>
<path class="st11" d="M249,400.8c0,2.5-2,4.5-4.5,4.5s-4.5-2-4.5-4.5c0-2.5,2-4.5,4.5-4.5S249,398.3,249,400.8"/>
<path class="st11" d="M379.6,368.8c0,2.5-2,4.5-4.5,4.5s-4.5-2-4.5-4.5c0-2.5,2-4.5,4.5-4.5S379.6,366.3,379.6,368.8"/>
<path class="st11" d="M429.7,481.9c0,2.5-2,4.5-4.5,4.5s-4.5-2-4.5-4.5c0-2.5,2-4.5,4.5-4.5S429.7,479.4,429.7,481.9"/>
<path class="st0" d="M629.9,264.8c0,2.5-2,4.5-4.5,4.5c-2.5,0-4.5-2-4.5-4.5c0-2.5,2-4.5,4.5-4.5
	C627.9,260.3,629.9,262.3,629.9,264.8"/>
<path class="st0" d="M694.9,262.5c0,2.5-2,4.5-4.5,4.5s-4.5-2-4.5-4.5c0-2.5,2-4.5,4.5-4.5S694.9,260,694.9,262.5"/>
<path class="st0" d="M743.6,244.2c0,2.5-2,4.5-4.5,4.5s-4.5-2-4.5-4.5c0-2.5,2-4.5,4.5-4.5S743.6,241.7,743.6,244.2"/>
<path class="st0" d="M652,224.8c0,2.5-2,4.5-4.5,4.5s-4.5-2-4.5-4.5c0-2.5,2-4.5,4.5-4.5S652,222.3,652,224.8"/>
<path class="st0" d="M627.3,288.8c0,2.5-2,4.5-4.5,4.5s-4.5-2-4.5-4.5c0-2.5,2-4.5,4.5-4.5S627.3,286.3,627.3,288.8"/>
<path class="st0" d="M538.2,311.6c0,2.5-2,4.5-4.5,4.5s-4.5-2-4.5-4.5c0-2.5,2-4.5,4.5-4.5S538.2,309.2,538.2,311.6"/>
<path class="st0" d="M398.5,342.5c0,2.5-2,4.5-4.5,4.5s-4.5-2-4.5-4.5c0-2.5,2-4.5,4.5-4.5S398.5,340,398.5,342.5"/>
<path class="st0" d="M459.6,360.8c0,2.5-2,4.5-4.5,4.5s-4.5-2-4.5-4.5c0-2.5,2-4.5,4.5-4.5S459.6,358.3,459.6,360.8"/>
<path class="st0" d="M468,358.5c0,2.5-2,4.5-4.5,4.5s-4.5-2-4.5-4.5c0-2.5,2-4.5,4.5-4.5S468,356,468,358.5"/>
<path class="st0" d="M661.7,214.5c0,2.5-2,4.5-4.5,4.5s-4.5-2-4.5-4.5c0-2.5,2-4.5,4.5-4.5S661.7,212,661.7,214.5"/>
<path class="st0" d="M397.2,359.6c0,2.5-2,4.5-4.5,4.5c-2.5,0-4.5-2-4.5-4.5c0-2.5,2-4.5,4.5-4.5
	C395.2,355.2,397.2,357.2,397.2,359.6"/>
<path class="st0" d="M541.5,348.2c0,2.5-2,4.5-4.5,4.5s-4.5-2-4.5-4.5c0-2.5,2-4.5,4.5-4.5S541.5,345.7,541.5,348.2"/>
<path class="st12" d="M750.1,166.5c0,2.5-2,4.5-4.5,4.5s-4.5-2-4.5-4.5c0-2.5,2-4.5,4.5-4.5S750.1,164,750.1,166.5"/>
<path class="st12" d="M764.4,182.5c0,2.5-2,4.5-4.5,4.5s-4.5-2-4.5-4.5c0-2.5,2-4.5,4.5-4.5S764.4,180,764.4,182.5"/>
<path class="st12" d="M763.1,182.5c0,2.5-2,4.5-4.5,4.5s-4.5-2-4.5-4.5c0-2.5,2-4.5,4.5-4.5S763.1,180,763.1,182.5"/>
<path class="st12" d="M767,111.6c0,2.5-2,4.5-4.5,4.5s-4.5-2-4.5-4.5c0-2.5,2-4.5,4.5-4.5S767,109.2,767,111.6"/>
<path class="st12" d="M749.5,159.6c0,2.5-2,4.5-4.5,4.5s-4.5-2-4.5-4.5s2-4.5,4.5-4.5S749.5,157.2,749.5,159.6"/>
<path class="st12" d="M752.7,184.8c0,2.5-2,4.5-4.5,4.5s-4.5-2-4.5-4.5s2-4.5,4.5-4.5S752.7,182.3,752.7,184.8"/>
<path class="st12" d="M757.9,175.6c0,2.5-2,4.5-4.5,4.5s-4.5-2-4.5-4.5s2-4.5,4.5-4.5S757.9,173.2,757.9,175.6"/>
<path class="st12" d="M748.8,243.1c0,2.5-2,4.5-4.5,4.5s-4.5-2-4.5-4.5c0-2.5,2-4.5,4.5-4.5S748.8,240.6,748.8,243.1"/>
<path class="st12" d="M755.3,160.8c0,2.5-2,4.5-4.5,4.5s-4.5-2-4.5-4.5s2-4.5,4.5-4.5S755.3,158.3,755.3,160.8"/>
<path class="st12" d="M763.8,155.1c0,2.5-2,4.5-4.5,4.5s-4.5-2-4.5-4.5s2-4.5,4.5-4.5S763.8,152.6,763.8,155.1"/>
<path class="st12" d="M668.9,280.8c0,2.5-2,4.5-4.5,4.5c-2.5,0-4.5-2-4.5-4.5c0-2.5,2-4.5,4.5-4.5
	C666.9,276.3,668.9,278.3,668.9,280.8"/>
<path class="st12" d="M683.8,280.8c0,2.5-2,4.5-4.5,4.5s-4.5-2-4.5-4.5c0-2.5,2-4.5,4.5-4.5S683.8,278.3,683.8,280.8"/>
<path class="st12" d="M668.9,303.6c0,2.5-2,4.5-4.5,4.5c-2.5,0-4.5-2-4.5-4.5c0-2.5,2-4.5,4.5-4.5
	C666.9,299.2,668.9,301.2,668.9,303.6"/>
<path class="st12" d="M520,206.5c0,2.5-2,4.5-4.5,4.5s-4.5-2-4.5-4.5c0-2.5,2-4.5,4.5-4.5S520,204,520,206.5"/>
<path class="st12" d="M666.3,308.2c0,2.5-2,4.5-4.5,4.5s-4.5-2-4.5-4.5c0-2.5,2-4.5,4.5-4.5S666.3,305.7,666.3,308.2"/>
<path class="st12" d="M707.9,261.3c0,2.5-2,4.5-4.5,4.5s-4.5-2-4.5-4.5c0-2.5,2-4.5,4.5-4.5S707.9,258.9,707.9,261.3"/>
<path class="st12" d="M738.4,246.5c0,2.5-2,4.5-4.5,4.5s-4.5-2-4.5-4.5c0-2.5,2-4.5,4.5-4.5S738.4,244,738.4,246.5"/>
<path class="st12" d="M663.7,253.3c0,2.5-2,4.5-4.5,4.5s-4.5-2-4.5-4.5c0-2.5,2-4.5,4.5-4.5S663.7,250.9,663.7,253.3"/>
<path class="st12" d="M687.7,264.8c0,2.5-2,4.5-4.5,4.5s-4.5-2-4.5-4.5c0-2.5,2-4.5,4.5-4.5S687.7,262.3,687.7,264.8"/>
<path class="st12" d="M618.2,279.6c0,2.5-2,4.5-4.5,4.5s-4.5-2-4.5-4.5c0-2.5,2-4.5,4.5-4.5S618.2,277.2,618.2,279.6"/>
<path class="st12" d="M432.3,324.2c0,2.5-2,4.5-4.5,4.5s-4.5-2-4.5-4.5c0-2.5,2-4.5,4.5-4.5S432.3,321.7,432.3,324.2"/>
<path class="st12" d="M740.4,204.2c0,2.5-2,4.5-4.5,4.5s-4.5-2-4.5-4.5s2-4.5,4.5-4.5S740.4,201.7,740.4,204.2"/>
<path class="st12" d="M707.2,248.8c0,2.5-2,4.5-4.5,4.5s-4.5-2-4.5-4.5c0-2.5,2-4.5,4.5-4.5S707.2,246.3,707.2,248.8"/>
<path class="st12" d="M744.9,157.3c0,2.5-2,4.5-4.5,4.5s-4.5-2-4.5-4.5c0-2.5,2-4.5,4.5-4.5S744.9,154.9,744.9,157.3"/>
<path class="st12" d="M675.4,241.9c0,2.5-2,4.5-4.5,4.5c-2.5,0-4.5-2-4.5-4.5c0-2.5,2-4.5,4.5-4.5
	C673.4,237.4,675.4,239.4,675.4,241.9"/>
<path class="st13" d="M494.7,339.1c0,2.5-2,4.5-4.5,4.5s-4.5-2-4.5-4.5c0-2.5,2-4.5,4.5-4.5S494.7,336.6,494.7,339.1"/>
<path class="st13" d="M627.9,343.6c0,2.5-2,4.5-4.5,4.5s-4.5-2-4.5-4.5c0-2.5,2-4.5,4.5-4.5S627.9,341.2,627.9,343.6"/>
<path class="st13" d="M608.4,342.5c0,2.5-2,4.5-4.5,4.5s-4.5-2-4.5-4.5c0-2.5,2-4.5,4.5-4.5S608.4,340,608.4,342.5"/>
<path class="st13" d="M682.5,331.1c0,2.5-2,4.5-4.5,4.5s-4.5-2-4.5-4.5c0-2.5,2-4.5,4.5-4.5S682.5,328.6,682.5,331.1"/>
<path class="st13" d="M584.4,320.8c0,2.5-2,4.5-4.5,4.5c-2.5,0-4.5-2-4.5-4.5c0-2.5,2-4.5,4.5-4.5
	C582.4,316.3,584.4,318.3,584.4,320.8"/>
<path class="st13" d="M497.9,331.1c0,2.5-2,4.5-4.5,4.5s-4.5-2-4.5-4.5c0-2.5,2-4.5,4.5-4.5S497.9,328.6,497.9,331.1"/>
<path class="st13" d="M618.8,323.1c0,2.5-2,4.5-4.5,4.5c-2.5,0-4.5-2-4.5-4.5c0-2.5,2-4.5,4.5-4.5
	C616.8,318.6,618.8,320.6,618.8,323.1"/>
<path class="st14" d="M536.9,372.2c0,2.5-2,4.5-4.5,4.5s-4.5-2-4.5-4.5c0-2.5,2-4.5,4.5-4.5S536.9,369.7,536.9,372.2"/>
<path class="st14" d="M674.7,236.2c0,2.5-2,4.5-4.5,4.5s-4.5-2-4.5-4.5c0-2.5,2-4.5,4.5-4.5S674.7,233.7,674.7,236.2"/>
<path class="st14" d="M654.6,197.3c0,2.5-2,4.5-4.5,4.5c-2.5,0-4.5-2-4.5-4.5c0-2.5,2-4.5,4.5-4.5
	C652.6,192.9,654.6,194.9,654.6,197.3"/>
<path class="st14" d="M603.9,232.8c0,2.5-2,4.5-4.5,4.5c-2.5,0-4.5-2-4.5-4.5c0-2.5,2-4.5,4.5-4.5
	C601.9,228.3,603.9,230.3,603.9,232.8"/>
<path class="st14" d="M687.7,175.6c0,2.5-2,4.5-4.5,4.5s-4.5-2-4.5-4.5s2-4.5,4.5-4.5S687.7,173.2,687.7,175.6"/>
<path class="st14" d="M740.4,230.5c0,2.5-2,4.5-4.5,4.5s-4.5-2-4.5-4.5c0-2.5,2-4.5,4.5-4.5S740.4,228,740.4,230.5"/>
<path class="st14" d="M729.3,262.5c0,2.5-2,4.5-4.5,4.5s-4.5-2-4.5-4.5c0-2.5,2-4.5,4.5-4.5S729.3,260,729.3,262.5"/>
<path class="st14" d="M615.6,335.6c0,2.5-2,4.5-4.5,4.5c-2.5,0-4.5-2-4.5-4.5c0-2.5,2-4.5,4.5-4.5
	C613.6,331.2,615.6,333.2,615.6,335.6"/>
<path class="st14" d="M658.5,321.9c0,2.5-2,4.5-4.5,4.5s-4.5-2-4.5-4.5c0-2.5,2-4.5,4.5-4.5S658.5,319.4,658.5,321.9"/>
<path class="st14" d="M595.4,176.8c0,2.5-2,4.5-4.5,4.5s-4.5-2-4.5-4.5s2-4.5,4.5-4.5S595.4,174.3,595.4,176.8"/>
<path class="st14" d="M726.1,173.3c0,2.5-2,4.5-4.5,4.5s-4.5-2-4.5-4.5c0-2.5,2-4.5,4.5-4.5S726.1,170.9,726.1,173.3"/>
<path class="st14" d="M711.1,217.9c0,2.5-2,4.5-4.5,4.5s-4.5-2-4.5-4.5c0-2.5,2-4.5,4.5-4.5S711.1,215.4,711.1,217.9"/>
<path class="st14" d="M676,287.6c0,2.5-2,4.5-4.5,4.5s-4.5-2-4.5-4.5c0-2.5,2-4.5,4.5-4.5S676,285.2,676,287.6"/>
<path class="st14" d="M430.3,404.2c0,2.5-2,4.5-4.5,4.5s-4.5-2-4.5-4.5c0-2.5,2-4.5,4.5-4.5S430.3,401.7,430.3,404.2"/>
<path class="st14" d="M700.1,278.5c0,2.5-2,4.5-4.5,4.5s-4.5-2-4.5-4.5c0-2.5,2-4.5,4.5-4.5S700.1,276,700.1,278.5"/>
<path class="st14" d="M536.3,391.6c0,2.5-2,4.5-4.5,4.5s-4.5-2-4.5-4.5c0-2.5,2-4.5,4.5-4.5S536.3,389.2,536.3,391.6"/>
<path class="st14" d="M608.4,268.2c0,2.5-2,4.5-4.5,4.5s-4.5-2-4.5-4.5c0-2.5,2-4.5,4.5-4.5S608.4,265.7,608.4,268.2"/>
<path class="st14" d="M718.3,117.3c0,2.5-2,4.5-4.5,4.5s-4.5-2-4.5-4.5c0-2.5,2-4.5,4.5-4.5S718.3,114.9,718.3,117.3"/>
<path class="st14" d="M737.1,228.2c0,2.5-2,4.5-4.5,4.5s-4.5-2-4.5-4.5c0-2.5,2-4.5,4.5-4.5S737.1,225.7,737.1,228.2"/>
<path class="st14" d="M717.6,236.2c0,2.5-2,4.5-4.5,4.5s-4.5-2-4.5-4.5c0-2.5,2-4.5,4.5-4.5S717.6,233.7,717.6,236.2"/>
<path class="st14" d="M531.1,325.3c0,2.5-2,4.5-4.5,4.5c-2.5,0-4.5-2-4.5-4.5c0-2.5,2-4.5,4.5-4.5
	C529.1,320.9,531.1,322.9,531.1,325.3"/>
<path class="st14" d="M675.4,285.3c0,2.5-2,4.5-4.5,4.5c-2.5,0-4.5-2-4.5-4.5c0-2.5,2-4.5,4.5-4.5
	C673.4,280.9,675.4,282.9,675.4,285.3"/>
<path class="st14" d="M601.3,179.1c0,2.5-2,4.5-4.5,4.5s-4.5-2-4.5-4.5s2-4.5,4.5-4.5S601.3,176.6,601.3,179.1"/>
<path class="st14" d="M664.3,248.8c0,2.5-2,4.5-4.5,4.5c-2.5,0-4.5-2-4.5-4.5c0-2.5,2-4.5,4.5-4.5
	C662.3,244.3,664.3,246.3,664.3,248.8"/>
<path class="st14" d="M676,225.9c0,2.5-2,4.5-4.5,4.5s-4.5-2-4.5-4.5c0-2.5,2-4.5,4.5-4.5S676,223.4,676,225.9"/>
<path class="st14" d="M630.5,323.1c0,2.5-2,4.5-4.5,4.5s-4.5-2-4.5-4.5c0-2.5,2-4.5,4.5-4.5S630.5,320.6,630.5,323.1"/>
<path class="st14" d="M622.7,308.2c0,2.5-2,4.5-4.5,4.5s-4.5-2-4.5-4.5c0-2.5,2-4.5,4.5-4.5S622.7,305.7,622.7,308.2"/>
<path class="st14" d="M674.7,249.9c0,2.5-2,4.5-4.5,4.5s-4.5-2-4.5-4.5c0-2.5,2-4.5,4.5-4.5S674.7,247.4,674.7,249.9"/>
<path class="st14" d="M504.4,337.9c0,2.5-2,4.5-4.5,4.5s-4.5-2-4.5-4.5c0-2.5,2-4.5,4.5-4.5S504.4,335.4,504.4,337.9"/>
<path class="st14" d="M737.1,286.5c0,2.5-2,4.5-4.5,4.5s-4.5-2-4.5-4.5c0-2.5,2-4.5,4.5-4.5S737.1,284,737.1,286.5"/>
<path class="st14" d="M701.4,198.5c0,2.5-2,4.5-4.5,4.5s-4.5-2-4.5-4.5c0-2.5,2-4.5,4.5-4.5S701.4,196,701.4,198.5"/>
<path class="st14" d="M559.7,324.2c0,2.5-2,4.5-4.5,4.5s-4.5-2-4.5-4.5c0-2.5,2-4.5,4.5-4.5S559.7,321.7,559.7,324.2"/>
<path class="st14" d="M629.2,256.8c0,2.5-2,4.5-4.5,4.5s-4.5-2-4.5-4.5c0-2.5,2-4.5,4.5-4.5S629.2,254.3,629.2,256.8"/>
<path class="st14" d="M641.6,297.9c0,2.5-2,4.5-4.5,4.5c-2.5,0-4.5-2-4.5-4.5c0-2.5,2-4.5,4.5-4.5
	C639.6,293.4,641.6,295.4,641.6,297.9"/>
<path class="st14" d="M725.4,267.1c0,2.5-2,4.5-4.5,4.5s-4.5-2-4.5-4.5c0-2.5,2-4.5,4.5-4.5S725.4,264.6,725.4,267.1"/>
<path class="st14" d="M552.5,333.3c0,2.5-2,4.5-4.5,4.5s-4.5-2-4.5-4.5c0-2.5,2-4.5,4.5-4.5S552.5,330.9,552.5,333.3"/>
<path class="st14" d="M724.1,191.6c0,2.5-2,4.5-4.5,4.5s-4.5-2-4.5-4.5s2-4.5,4.5-4.5S724.1,189.2,724.1,191.6"/>
<path class="st13" d="M659.1,199.6c0,2.5-2,4.5-4.5,4.5c-2.5,0-4.5-2-4.5-4.5s2-4.5,4.5-4.5C657.1,195.2,659.1,197.2,659.1,199.6"/>
<path class="st13" d="M692.3,204.2c0,2.5-2,4.5-4.5,4.5s-4.5-2-4.5-4.5s2-4.5,4.5-4.5S692.3,201.7,692.3,204.2"/>
<path class="st13" d="M689,251.1c0,2.5-2,4.5-4.5,4.5s-4.5-2-4.5-4.5c0-2.5,2-4.5,4.5-4.5S689,248.6,689,251.1"/>
<path class="st13" d="M486.9,324.2c0,2.5-2,4.5-4.5,4.5s-4.5-2-4.5-4.5c0-2.5,2-4.5,4.5-4.5S486.9,321.7,486.9,324.2"/>
<path class="st13" d="M587.6,321.9c0,2.5-2,4.5-4.5,4.5c-2.5,0-4.5-2-4.5-4.5c0-2.5,2-4.5,4.5-4.5
	C585.6,317.4,587.6,319.4,587.6,321.9"/>
<path class="st13" d="M423.8,356.2c0,2.5-2,4.5-4.5,4.5s-4.5-2-4.5-4.5c0-2.5,2-4.5,4.5-4.5S423.8,353.7,423.8,356.2"/>
<path class="st13" d="M572.7,363.1c0,2.5-2,4.5-4.5,4.5s-4.5-2-4.5-4.5c0-2.5,2-4.5,4.5-4.5S572.7,360.6,572.7,363.1"/>
<path class="st13" d="M494,318.5c0,2.5-2,4.5-4.5,4.5s-4.5-2-4.5-4.5c0-2.5,2-4.5,4.5-4.5S494,316,494,318.5"/>
<path class="st13" d="M379.6,335.6c0,2.5-2,4.5-4.5,4.5s-4.5-2-4.5-4.5c0-2.5,2-4.5,4.5-4.5S379.6,333.2,379.6,335.6"/>
<path class="st13" d="M514.8,380.2c0,2.5-2,4.5-4.5,4.5s-4.5-2-4.5-4.5c0-2.5,2-4.5,4.5-4.5S514.8,377.7,514.8,380.2"/>
<path class="st13" d="M614.9,341.3c0,2.5-2,4.5-4.5,4.5s-4.5-2-4.5-4.5c0-2.5,2-4.5,4.5-4.5S614.9,338.9,614.9,341.3"/>
<path class="st13" d="M623.4,380.2c0,2.5-2,4.5-4.5,4.5c-2.5,0-4.5-2-4.5-4.5c0-2.5,2-4.5,4.5-4.5
	C621.4,375.7,623.4,377.7,623.4,380.2"/>
<path class="st13" d="M603.9,307.1c0,2.5-2,4.5-4.5,4.5c-2.5,0-4.5-2-4.5-4.5c0-2.5,2-4.5,4.5-4.5
	C601.9,302.6,603.9,304.6,603.9,307.1"/>
<path class="st13" d="M742.3,257.9c0,2.5-2,4.5-4.5,4.5s-4.5-2-4.5-4.5c0-2.5,2-4.5,4.5-4.5S742.3,255.4,742.3,257.9"/>
<path class="st13" d="M670.2,275.1c0,2.5-2,4.5-4.5,4.5s-4.5-2-4.5-4.5c0-2.5,2-4.5,4.5-4.5S670.2,272.6,670.2,275.1"/>
<path class="st13" d="M653.3,312.8c0,2.5-2,4.5-4.5,4.5s-4.5-2-4.5-4.5c0-2.5,2-4.5,4.5-4.5S653.3,310.3,653.3,312.8"/>
<path class="st13" d="M668.2,286.5c0,2.5-2,4.5-4.5,4.5s-4.5-2-4.5-4.5c0-2.5,2-4.5,4.5-4.5S668.2,284,668.2,286.5"/>
<path class="st13" d="M668.9,297.9c0,2.5-2,4.5-4.5,4.5c-2.5,0-4.5-2-4.5-4.5c0-2.5,2-4.5,4.5-4.5
	C666.9,293.4,668.9,295.4,668.9,297.9"/>
<path class="st13" d="M522.6,311.6c0,2.5-2,4.5-4.5,4.5c-2.5,0-4.5-2-4.5-4.5c0-2.5,2-4.5,4.5-4.5
	C520.6,307.2,522.6,309.2,522.6,311.6"/>
<path class="st13" d="M520.7,349.3c0,2.5-2,4.5-4.5,4.5s-4.5-2-4.5-4.5c0-2.5,2-4.5,4.5-4.5S520.7,346.9,520.7,349.3"/>
<path class="st13" d="M666.3,309.3c0,2.5-2,4.5-4.5,4.5s-4.5-2-4.5-4.5c0-2.5,2-4.5,4.5-4.5S666.3,306.9,666.3,309.3"/>
<path class="st13" d="M621.4,331.1c0,2.5-2,4.5-4.5,4.5s-4.5-2-4.5-4.5c0-2.5,2-4.5,4.5-4.5S621.4,328.6,621.4,331.1"/>
<path class="st13" d="M472.6,320.8c0,2.5-2,4.5-4.5,4.5s-4.5-2-4.5-4.5c0-2.5,2-4.5,4.5-4.5S472.6,318.3,472.6,320.8"/>
<path class="st13" d="M651.3,287.6c0,2.5-2,4.5-4.5,4.5c-2.5,0-4.5-2-4.5-4.5c0-2.5,2-4.5,4.5-4.5
	C649.3,283.2,651.3,285.2,651.3,287.6"/>
<path class="st13" d="M642.2,331.1c0,2.5-2,4.5-4.5,4.5s-4.5-2-4.5-4.5c0-2.5,2-4.5,4.5-4.5S642.2,328.6,642.2,331.1"/>
<path class="st13" d="M653.9,292.2c0,2.5-2,4.5-4.5,4.5s-4.5-2-4.5-4.5c0-2.5,2-4.5,4.5-4.5S653.9,289.7,653.9,292.2"/>
<path class="st13" d="M618.2,304.8c0,2.5-2,4.5-4.5,4.5s-4.5-2-4.5-4.5c0-2.5,2-4.5,4.5-4.5S618.2,302.3,618.2,304.8"/>
<path class="st13" d="M471.3,321.9c0,2.5-2,4.5-4.5,4.5s-4.5-2-4.5-4.5c0-2.5,2-4.5,4.5-4.5S471.3,319.4,471.3,321.9"/>
<path class="st13" d="M560.3,324.2c0,2.5-2,4.5-4.5,4.5c-2.5,0-4.5-2-4.5-4.5c0-2.5,2-4.5,4.5-4.5
	C558.3,319.7,560.3,321.7,560.3,324.2"/>
<path class="st13" d="M665,348.2c0,2.5-2,4.5-4.5,4.5s-4.5-2-4.5-4.5c0-2.5,2-4.5,4.5-4.5S665,345.7,665,348.2"/>
<path class="st13" d="M671.5,351.6c0,2.5-2,4.5-4.5,4.5s-4.5-2-4.5-4.5c0-2.5,2-4.5,4.5-4.5S671.5,349.2,671.5,351.6"/>
<path class="st13" d="M695.5,319.6c0,2.5-2,4.5-4.5,4.5s-4.5-2-4.5-4.5c0-2.5,2-4.5,4.5-4.5S695.5,317.2,695.5,319.6"/>
<path class="st13" d="M650.7,328.8c0,2.5-2,4.5-4.5,4.5s-4.5-2-4.5-4.5c0-2.5,2-4.5,4.5-4.5S650.7,326.3,650.7,328.8"/>
<path class="st13" d="M665.6,342.5c0,2.5-2,4.5-4.5,4.5c-2.5,0-4.5-2-4.5-4.5c0-2.5,2-4.5,4.5-4.5C663.6,338,665.6,340,665.6,342.5"
	/>
<path class="st13" d="M687.1,341.3c0,2.5-2,4.5-4.5,4.5s-4.5-2-4.5-4.5c0-2.5,2-4.5,4.5-4.5S687.1,338.9,687.1,341.3"/>
<path class="st13" d="M637,350.5c0,2.5-2,4.5-4.5,4.5s-4.5-2-4.5-4.5c0-2.5,2-4.5,4.5-4.5S637,348,637,350.5"/>
<path class="st13" d="M644.2,339.1c0,2.5-2,4.5-4.5,4.5s-4.5-2-4.5-4.5c0-2.5,2-4.5,4.5-4.5S644.2,336.6,644.2,339.1"/>
<path class="st13" d="M522.6,365.3c0,2.5-2,4.5-4.5,4.5c-2.5,0-4.5-2-4.5-4.5c0-2.5,2-4.5,4.5-4.5
	C520.6,360.9,522.6,362.9,522.6,365.3"/>
<path class="st13" d="M610.4,331.1c0,2.5-2,4.5-4.5,4.5c-2.5,0-4.5-2-4.5-4.5c0-2.5,2-4.5,4.5-4.5
	C608.4,326.6,610.4,328.6,610.4,331.1"/>
<path class="st13" d="M629.2,344.8c0,2.5-2,4.5-4.5,4.5s-4.5-2-4.5-4.5c0-2.5,2-4.5,4.5-4.5S629.2,342.3,629.2,344.8"/>
<path class="st13" d="M682.5,305.9c0,2.5-2,4.5-4.5,4.5s-4.5-2-4.5-4.5c0-2.5,2-4.5,4.5-4.5S682.5,303.4,682.5,305.9"/>
<path class="st13" d="M673.4,215.6c0,2.5-2,4.5-4.5,4.5s-4.5-2-4.5-4.5c0-2.5,2-4.5,4.5-4.5S673.4,213.2,673.4,215.6"/>
<path class="st13" d="M663.7,221.3c0,2.5-2,4.5-4.5,4.5s-4.5-2-4.5-4.5c0-2.5,2-4.5,4.5-4.5S663.7,218.9,663.7,221.3"/>
<path class="st13" d="M665.6,301.3c0,2.5-2,4.5-4.5,4.5c-2.5,0-4.5-2-4.5-4.5c0-2.5,2-4.5,4.5-4.5
	C663.6,296.9,665.6,298.9,665.6,301.3"/>
<path class="st13" d="M685.8,296.8c0,2.5-2,4.5-4.5,4.5s-4.5-2-4.5-4.5c0-2.5,2-4.5,4.5-4.5S685.8,294.3,685.8,296.8"/>
<path class="st13" d="M713.1,238.5c0,2.5-2,4.5-4.5,4.5s-4.5-2-4.5-4.5c0-2.5,2-4.5,4.5-4.5S713.1,236,713.1,238.5"/>
<path class="st13" d="M720.2,262.5c0,2.5-2,4.5-4.5,4.5s-4.5-2-4.5-4.5c0-2.5,2-4.5,4.5-4.5S720.2,260,720.2,262.5"/>
<path class="st13" d="M635.1,270.5c0,2.5-2,4.5-4.5,4.5c-2.5,0-4.5-2-4.5-4.5c0-2.5,2-4.5,4.5-4.5C633.1,266,635.1,268,635.1,270.5"
	/>
<path class="st13" d="M546,303.6c0,2.5-2,4.5-4.5,4.5s-4.5-2-4.5-4.5c0-2.5,2-4.5,4.5-4.5S546,301.2,546,303.6"/>
<path pointer-events="none" class="st0" d="M188,130.9L188,130.9L188,130.9L188,130.9z"/>
<path pointer-events="none" class="st0" d="M188,130.9h80.7v14H188V130.9z"/>
<path pointer-events="none" class="st9" d="M188,130.9"/>
<path pointer-events="none" class="st0" d="M188,146.9h80.7v14H188V146.9z"/>
<path pointer-events="none" class="st9" d="M188,146.9"/>
<path pointer-events="none" class="st0" d="M188,162.9h80.7v14H188V162.9z"/>
<path pointer-events="none" class="st9" d="M188,162.9"/>
<path pointer-events="none" class="st0" d="M188,178.9h80.7v14H188V178.9z"/>
<path pointer-events="none" class="st9" d="M188,178.9"/>
<path pointer-events="none" class="st0" d="M188,194.9h80.7v14H188V194.9z"/>
<path pointer-events="none" class="st9" d="M188,194.9"/>
<path pointer-events="none" class="st9" d="M188,130.9"/>
<path pointer-events="none" class="st9" d="M178,99.9"/>
<path pointer-events="none" class="st0" d="M141.8,14.9L141.8,14.9L141.8,14.9L141.8,14.9z"/>
<text transform="matrix(1 0 0 1 16.4629 50.9867)" class="st7 st15">Poor students have far worse access to the internet.</text>
<path pointer-events="none" class="st9" d="M141.8,14.9"/>
<path class="st9" d="M160,81.9"/>
<path class="st11" d="M842.3,254.3c0,3.5-2.8,6.3-6.3,6.3c-3.5,0-6.3-2.8-6.3-6.3c0-3.5,2.8-6.3,6.3-6.3
	C839.5,248,842.3,250.8,842.3,254.3"/>
<text transform="matrix(1 0 0 1 849.8738 259.371)" class="st5 st16">Manhattan</text>
<path class="st13" d="M842.3,274.5c0,3.5-2.8,6.3-6.3,6.3c-3.5,0-6.3-2.8-6.3-6.3c0-3.5,2.8-6.3,6.3-6.3
	C839.5,268.2,842.3,271,842.3,274.5"/>
<text transform="matrix(1 0 0 1 849.8738 279.5556)" class="st5 st16">Queens</text>
<path class="st14" d="M842.3,294.7c0,3.5-2.8,6.3-6.3,6.3c-3.5,0-6.3-2.8-6.3-6.3c0-3.5,2.8-6.3,6.3-6.3
	C839.5,288.4,842.3,291.2,842.3,294.7"/>
<text transform="matrix(1 0 0 1 849.8738 299.7401)" class="st5 st16">Brooklyn</text>
<path class="st12" d="M842.3,314.9c0,3.5-2.8,6.3-6.3,6.3c-3.5,0-6.3-2.8-6.3-6.3s2.8-6.3,6.3-6.3
	C839.5,308.6,842.3,311.4,842.3,314.9"/>
<text transform="matrix(1 0 0 1 849.8738 319.9237)" class="st5 st16">Bronx</text>
<path class="st17" d="M842.3,335.1c0,3.5-2.8,6.3-6.3,6.3c-3.5,0-6.3-2.8-6.3-6.3s2.8-6.3,6.3-6.3
	C839.5,328.8,842.3,331.6,842.3,335.1"/>
<text transform="matrix(1 0 0 1 849.8738 340.1093)" class="st5 st16">Staten</text>
<rect x="432.9" y="111.6" class="st18" width="143" height="57.2"/>
<text transform="matrix(1 0 0 1 437.5374 127.5501)" class="st10"><tspan x="0" y="0" class="st5 st6">The Bronx has the most</tspan><tspan x="0" y="16.8" class="st5 st6">impoverished students</tspan><tspan x="0" y="33.6" class="st5 st6">and the worst internet.</tspan></text>
<text transform="matrix(1 0 0 1 829.6896 234.4262)" class="st7 st19">ZIP codes</text>
<rect x="173" y="321.4" class="st18" width="189.1" height="57.2"/>
<text transform="matrix(1 0 0 1 177.1202 336.3436)" class="st10"><tspan x="0" y="0" class="st5 st6">ZIP codes in the Upper East Side</tspan><tspan x="0" y="16.8" class="st5 st6">have the fewest poor students,</tspan><tspan x="0" y="33.6" class="st5 st6">and some of the best internet.</tspan></text>
<line class="st2" x1="810.5" y1="81.9" x2="810.5" y2="482.4"/>
<line class="st4" x1="160.5" y1="482.4" x2="811" y2="482.4"/>
</svg>
